<svg width="1436" height="1024" viewBox="0 0 1436 1024" fill="none" xmlns="http://www.w3.org/2000/svg">
<path opacity="0.7" d="M32.999 294.327C32.999 295.8 32.2613 296.537 30.786 296.537C29.3107 296.537 28.5731 295.8 28.5731 294.327C28.5731 292.853 29.3107 292.116 30.786 292.116C31.5237 292.116 32.999 292.853 32.999 294.327Z" fill="white"/>
<path opacity="0.7" d="M123.729 294.327C123.729 295.064 122.991 295.801 122.253 295.801C121.516 295.801 120.778 295.064 120.778 294.327C120.778 293.59 121.516 292.853 122.253 292.853C122.991 292.117 123.729 292.853 123.729 294.327Z" fill="white"/>
<path opacity="0.7" d="M966.862 323.062C966.862 323.799 966.124 324.536 965.386 324.536C964.649 324.536 963.911 323.799 963.911 323.062C963.911 322.326 964.649 321.589 965.386 321.589C966.124 321.589 966.862 322.326 966.862 323.062Z" fill="white"/>
<path opacity="0.7" d="M142.911 206.646C142.911 207.383 142.174 208.12 141.436 208.12C140.698 208.12 139.961 207.383 139.961 206.646C139.961 205.91 140.698 205.173 141.436 205.173C142.174 205.173 142.911 205.91 142.911 206.646Z" fill="white"/>
<path opacity="0.7" d="M139.958 256.012C139.958 256.749 139.221 257.486 138.483 257.486C137.745 257.486 137.008 256.749 137.008 256.012C137.008 255.275 137.745 254.538 138.483 254.538C139.221 254.538 139.958 255.275 139.958 256.012Z" fill="white"/>
<path opacity="0.7" d="M207.086 -1.13443C207.086 0.339194 206.348 1.076 204.873 1.076C203.398 1.076 202.66 0.339194 202.66 -1.13443C202.66 -2.60804 203.398 -3.34485 204.873 -3.34485C206.348 -3.34485 207.086 -1.87123 207.086 -1.13443Z" fill="white"/>
<path opacity="0.7" d="M215.197 345.903C215.197 347.377 213.721 348.851 212.246 348.851C210.771 348.851 209.295 347.377 209.295 345.903C209.295 344.43 210.771 342.956 212.246 342.956C214.459 342.956 215.197 344.43 215.197 345.903Z" fill="white"/>
<path opacity="0.7" d="M704.256 82.8621C704.256 83.599 703.518 84.3357 702.781 84.3357C702.043 84.3357 701.305 83.599 701.305 82.8621C701.305 82.1253 702.043 81.3885 702.781 81.3885C703.518 81.3885 704.256 81.3885 704.256 82.8621Z" fill="white"/>
<path opacity="0.7" d="M30.0529 56.3378C30.0529 57.0746 29.3152 57.8114 28.5776 57.8114C27.8399 57.8114 27.1023 57.0746 27.1023 56.3378C27.1023 55.601 27.8399 54.8641 28.5776 54.8641C29.3152 54.8641 30.0529 55.601 30.0529 56.3378Z" fill="white"/>
<path opacity="0.7" d="M513.945 482.96C513.945 483.697 513.208 484.434 512.47 484.434C511.732 484.434 510.995 483.697 510.995 482.96C510.995 482.223 511.732 481.486 512.47 481.486C513.208 481.486 513.945 482.223 513.945 482.96Z" fill="white"/>
<path opacity="0.7" d="M94.9642 144.755C94.9642 145.492 94.2266 146.229 93.489 146.229C92.7513 146.229 92.0137 145.492 92.0137 144.755C92.0137 144.018 92.7513 143.281 93.489 143.281C94.2266 143.281 94.9642 144.018 94.9642 144.755Z" fill="white"/>
<path opacity="0.7" d="M624.589 63.7046C624.589 65.1782 623.114 66.6519 621.639 66.6519C620.164 66.6519 618.688 65.1782 618.688 63.7046C618.688 62.231 620.164 60.7574 621.639 60.7574C623.852 60.7574 624.589 61.4942 624.589 63.7046Z" fill="white"/>
<path opacity="0.7" d="M141.436 409.27C141.436 411.48 139.223 413.691 137.01 413.691C134.797 413.691 132.584 411.48 132.584 409.27C132.584 407.059 134.797 404.849 137.01 404.849C139.223 405.586 141.436 407.059 141.436 409.27Z" fill="white"/>
<path opacity="0.7" d="M9.39453 333.377C9.39453 334.113 8.65689 334.85 7.91925 334.85C7.18161 334.85 6.44397 334.113 6.44397 333.377C6.44397 332.64 7.18161 331.903 7.91925 331.903C8.65689 331.166 9.39453 331.903 9.39453 333.377Z" fill="white"/>
<path opacity="0.7" d="M100.129 456.424C100.129 457.161 99.3911 457.898 98.6535 457.898C97.9158 457.898 97.1782 457.161 97.1782 456.424C97.1782 455.687 97.9158 454.951 98.6535 454.951C99.3911 454.951 100.129 455.687 100.129 456.424Z" fill="white"/>
<path opacity="0.7" d="M812.69 289.169C812.69 289.906 811.953 290.642 811.215 290.642C810.478 290.642 809.74 289.906 809.74 289.169C809.74 288.432 810.478 287.695 811.215 287.695C811.953 287.695 812.69 288.432 812.69 289.169Z" fill="white"/>
<path opacity="0.7" d="M856.95 449.056C856.95 449.793 856.212 450.53 855.475 450.53C854.737 450.53 853.999 449.793 853.999 449.056C853.999 448.319 854.737 447.583 855.475 447.583C856.212 447.583 856.95 448.319 856.95 449.056Z" fill="white"/>
<path opacity="0.7" d="M634.18 439.479C634.18 440.215 633.442 440.952 632.705 440.952C631.967 440.952 631.229 440.215 631.229 439.479C631.229 438.742 631.967 438.005 632.705 438.005C633.442 438.005 634.18 438.742 634.18 439.479Z" fill="white"/>
<path opacity="0.7" d="M944.731 375.376C944.731 376.113 943.994 376.85 943.256 376.85C942.518 376.85 941.781 376.113 941.781 375.376C941.781 374.639 942.518 373.903 943.256 373.903C943.994 373.166 944.731 373.903 944.731 375.376Z" fill="white"/>
<path opacity="0.7" d="M818.595 387.901C818.595 389.375 817.12 390.848 815.645 390.848C814.169 390.848 812.694 389.375 812.694 387.901C812.694 386.427 814.169 384.954 815.645 384.954C817.12 384.954 818.595 386.427 818.595 387.901Z" fill="white"/>
<path opacity="0.7" d="M768.43 237.593C768.43 239.066 766.955 240.54 765.48 240.54C764.004 240.54 762.529 239.066 762.529 237.593C762.529 236.119 764.004 234.645 765.48 234.645C766.955 234.645 768.43 236.119 768.43 237.593Z" fill="white"/>
<path opacity="0.7" d="M817.857 465.267C817.857 466.004 817.119 466.741 816.381 466.741C815.644 466.741 814.906 466.004 814.906 465.267C814.906 464.53 815.644 463.793 816.381 463.793C817.119 463.793 817.857 464.53 817.857 465.267Z" fill="white"/>
<path opacity="0.7" d="M856.95 56.3378C856.95 57.0746 856.212 57.8114 855.475 57.8114C854.737 57.8114 853.999 57.0746 853.999 56.3378C853.999 55.601 854.737 54.8641 855.475 54.8641C856.212 54.8641 856.95 55.601 856.95 56.3378Z" fill="white"/>
<path opacity="0.7" d="M848.096 153.596C848.096 154.333 847.359 155.07 846.621 155.07C845.884 155.07 845.146 154.333 845.146 153.596C845.146 152.859 845.884 152.123 846.621 152.123C847.359 152.123 848.096 152.859 848.096 153.596Z" fill="white"/>
<path opacity="0.7" d="M771.385 20.9698C771.385 21.7066 770.648 22.4434 769.91 22.4434C769.172 22.4434 768.435 21.7066 768.435 20.9698C768.435 20.233 769.172 19.4962 769.91 19.4962C770.648 18.7594 771.385 19.4962 771.385 20.9698Z" fill="white"/>
<path opacity="0.7" d="M694.665 216.961C694.665 218.435 693.19 219.909 691.715 219.909C690.24 219.909 688.764 218.435 688.764 216.961C688.764 215.488 690.24 214.014 691.715 214.014C693.19 214.014 694.665 215.488 694.665 216.961Z" fill="white"/>
<path opacity="0.7" d="M656.309 331.904C656.309 332.641 655.571 333.378 654.834 333.378C654.096 333.378 653.358 332.641 653.358 331.904C653.358 331.167 654.096 330.43 654.834 330.43C655.571 330.43 656.309 331.167 656.309 331.904Z" fill="white"/>
<path opacity="0.7" d="M429.117 295.8C429.117 298.01 426.904 300.221 424.691 300.221C422.479 300.221 420.266 298.01 420.266 295.8C420.266 293.589 422.479 291.379 424.691 291.379C426.904 292.116 429.117 293.589 429.117 295.8Z" fill="white"/>
<path opacity="0.7" d="M377.481 289.169C377.481 289.906 376.743 290.642 376.006 290.642C375.268 290.642 374.53 289.906 374.53 289.169C374.53 288.432 375.268 287.695 376.006 287.695C376.743 287.695 377.481 288.432 377.481 289.169Z" fill="white"/>
<path opacity="0.7" d="M286.752 113.809C286.752 114.545 286.014 115.282 285.277 115.282C284.539 115.282 283.801 114.545 283.801 113.809C283.801 113.072 284.539 112.335 285.277 112.335C286.014 111.598 286.752 112.335 286.752 113.809Z" fill="white"/>
<path opacity="0.7" d="M422.475 449.056C422.475 449.793 421.738 450.53 421 450.53C420.262 450.53 419.525 449.793 419.525 449.056C419.525 448.319 420.262 447.583 421 447.583C421.738 447.583 422.475 448.319 422.475 449.056Z" fill="white"/>
<path opacity="0.7" d="M336.91 412.953C336.91 413.69 336.173 414.427 335.435 414.427C334.697 414.427 333.96 413.69 333.96 412.953C333.96 412.216 334.697 411.479 335.435 411.479C336.173 411.479 336.91 412.216 336.91 412.953Z" fill="white"/>
<path opacity="0.7" d="M532.387 473.371C532.387 474.108 531.649 474.845 530.911 474.845C530.174 474.845 529.436 474.108 529.436 473.371C529.436 472.634 530.174 471.897 530.911 471.897C531.649 471.897 532.387 472.634 532.387 473.371Z" fill="white"/>
<path opacity="0.7" d="M297.076 377.585C297.076 378.322 296.338 379.059 295.601 379.059C294.863 379.059 294.125 378.322 294.125 377.585C294.125 376.848 294.863 376.112 295.601 376.112C296.338 375.375 297.076 376.112 297.076 377.585Z" fill="white"/>
<path opacity="0.7" d="M532.387 256.012C532.387 256.749 531.649 257.486 530.911 257.486C530.174 257.486 529.436 256.749 529.436 256.012C529.436 255.275 530.174 254.538 530.911 254.538C531.649 254.538 532.387 255.275 532.387 256.012Z" fill="white"/>
<path opacity="0.7" d="M366.416 216.961C366.416 217.698 365.678 218.435 364.941 218.435C364.203 218.435 363.465 217.698 363.465 216.961C363.465 216.224 364.203 215.488 364.941 215.488C365.678 215.488 366.416 216.224 366.416 216.961Z" fill="white"/>
<path opacity="0.7" d="M184.22 295.8C184.22 297.273 182.745 298.747 181.27 298.747C179.795 298.747 178.319 297.273 178.319 295.8C178.319 294.326 179.795 292.852 181.27 292.852C182.745 292.852 184.22 294.326 184.22 295.8Z" fill="white"/>
<path opacity="0.7" d="M214.462 256.013C214.462 257.486 212.987 258.96 211.511 258.96C210.036 258.96 208.561 257.486 208.561 256.013C208.561 254.539 210.036 253.066 211.511 253.066C212.987 253.066 214.462 254.539 214.462 256.013Z" fill="white"/>
<path opacity="0.7" d="M190.121 453.478C190.121 454.952 188.646 456.425 187.17 456.425C185.695 456.425 184.22 454.952 184.22 453.478C184.22 452.004 185.695 450.531 187.17 450.531C188.646 450.531 190.121 452.004 190.121 453.478Z" fill="white"/>
<path opacity="0.7" d="M333.219 237.593C333.219 239.066 331.744 240.54 330.269 240.54C328.794 240.54 327.318 239.066 327.318 237.593C327.318 236.119 328.794 234.645 330.269 234.645C331.744 234.645 333.219 236.119 333.219 237.593Z" fill="white"/>
<path opacity="0.7" d="M269.045 435.794C269.045 437.267 268.307 438.004 266.832 438.004C265.356 438.004 264.619 437.267 264.619 435.794C264.619 434.32 265.356 433.583 266.832 433.583C268.307 433.583 269.045 434.32 269.045 435.794Z" fill="white"/>
<path opacity="0.7" d="M483.699 351.061C483.699 353.271 481.486 355.482 479.274 355.482C477.061 355.482 474.848 353.271 474.848 351.061C474.848 348.85 477.061 346.64 479.274 346.64C482.224 346.64 483.699 348.113 483.699 351.061Z" fill="white"/>
<path opacity="0.7" d="M273.474 200.752C273.474 202.226 272.737 202.963 271.261 202.963C269.786 202.963 269.048 202.226 269.048 200.752C269.048 199.279 269.786 198.542 271.261 198.542C271.999 198.542 273.474 199.279 273.474 200.752Z" fill="white"/>
<path opacity="0.7" d="M234.375 115.282C234.375 116.019 233.637 116.756 232.9 116.756C232.162 116.756 231.424 116.019 231.424 115.282C231.424 114.545 232.162 113.809 232.9 113.809C233.637 113.809 234.375 114.545 234.375 115.282Z" fill="white"/>
<path opacity="0.7" d="M422.475 56.3378C422.475 57.0746 421.738 57.8114 421 57.8114C420.262 57.8114 419.525 57.0746 419.525 56.3378C419.525 55.601 420.262 54.8641 421 54.8641C421.738 54.8641 422.475 55.601 422.475 56.3378Z" fill="white"/>
<path opacity="0.7" d="M413.628 153.596C413.628 154.333 412.89 155.07 412.153 155.07C411.415 155.07 410.677 154.333 410.677 153.596C410.677 152.859 411.415 152.123 412.153 152.123C412.89 152.123 413.628 152.859 413.628 153.596Z" fill="white"/>
<path opacity="0.7" d="M336.91 20.9698C336.91 21.7066 336.173 22.4434 335.435 22.4434C334.697 22.4434 333.96 21.7066 333.96 20.9698C333.96 20.233 334.697 19.4962 335.435 19.4962C336.173 18.7594 336.91 19.4962 336.91 20.9698Z" fill="white"/>
<path opacity="0.7" d="M485.917 146.229C486.732 146.229 487.393 145.569 487.393 144.755C487.393 143.941 486.732 143.281 485.917 143.281C485.103 143.281 484.442 143.941 484.442 144.755C484.442 145.569 485.103 146.229 485.917 146.229Z" fill="white"/>
<path opacity="0.7" d="M358.303 150.648C358.303 152.122 356.827 153.595 355.352 153.595C353.877 153.595 352.401 152.122 352.401 150.648C352.401 149.175 353.877 147.701 355.352 147.701C357.565 147.701 358.303 149.175 358.303 150.648Z" fill="white"/>
<path opacity="0.7" d="M308.879 111.597C308.879 113.071 307.403 114.545 305.928 114.545C304.453 114.545 302.977 113.071 302.977 111.597C302.977 110.124 304.453 108.65 305.928 108.65C308.141 108.65 308.879 109.387 308.879 111.597Z" fill="white"/>
<path opacity="0.7" d="M190.121 61.4951C190.121 62.9687 188.646 64.4423 187.17 64.4423C185.695 64.4423 184.22 62.9687 184.22 61.4951C184.22 60.0215 185.695 58.5478 187.17 58.5478C188.646 58.5478 190.121 59.2846 190.121 61.4951Z" fill="white"/>
<path opacity="0.7" d="M269.045 43.0741C269.045 44.5477 268.307 45.2845 266.832 45.2845C265.356 45.2845 264.619 44.5477 264.619 43.0741C264.619 41.6005 265.356 40.8636 266.832 40.8636C268.307 40.8636 269.045 42.3373 269.045 43.0741Z" fill="white"/>
<path opacity="0.7" d="M231.427 148.439C231.427 149.912 230.689 150.649 229.214 150.649C227.739 150.649 227.001 149.912 227.001 148.439C227.001 146.965 227.739 146.228 229.214 146.228C229.952 146.228 231.427 146.965 231.427 148.439Z" fill="white"/>
<path opacity="0.7" d="M363.468 98.3349C363.468 99.8086 362.73 100.545 361.255 100.545C359.779 100.545 359.042 99.8086 359.042 98.3349C359.042 96.8613 359.779 96.1245 361.255 96.1245C361.992 96.1245 363.468 96.8613 363.468 98.3349Z" fill="white"/>
<path opacity="0.7" d="M181.265 138.859C181.265 141.07 179.052 143.28 176.84 143.28C174.627 143.28 172.414 141.07 172.414 138.859C172.414 136.649 174.627 134.439 176.84 134.439C179.79 134.439 181.265 136.649 181.265 138.859Z" fill="white"/>
<path opacity="0.7" d="M398.134 390.848C398.134 391.585 397.397 392.322 396.659 392.322C395.921 392.322 395.184 391.585 395.184 390.848C395.184 390.112 395.921 389.375 396.659 389.375C397.397 389.375 398.134 390.112 398.134 390.848Z" fill="white"/>
<path opacity="0.7" d="M239.539 468.951C239.539 470.424 238.802 471.161 237.326 471.161C235.851 471.161 235.113 470.424 235.113 468.951C235.113 467.477 235.851 466.74 237.326 466.74C238.802 466.74 239.539 467.477 239.539 468.951Z" fill="white"/>
<path opacity="0.7" d="M463.046 27.6013C463.046 28.3381 462.308 29.0749 461.57 29.0749C460.833 29.0749 460.095 28.3381 460.095 27.6013C460.095 26.8645 460.833 26.1277 461.57 26.1277C462.308 26.1277 463.046 26.8645 463.046 27.6013Z" fill="white"/>
<path opacity="0.7" d="M445.347 209.594C445.347 211.804 443.134 214.014 440.921 214.014C438.708 214.014 436.495 211.804 436.495 209.594C436.495 207.383 438.708 205.173 440.921 205.173C443.134 205.173 445.347 207.383 445.347 209.594Z" fill="white"/>
<path opacity="0.7" d="M486.655 141.807C486.655 143.28 485.179 144.754 483.704 144.754C482.229 144.754 480.753 143.28 480.753 141.807C480.753 140.333 482.229 138.86 483.704 138.86C485.917 138.86 486.655 140.333 486.655 141.807Z" fill="white"/>
<path opacity="0.7" d="M537.549 27.6014C537.549 29.075 536.074 30.5486 534.599 30.5486C533.123 30.5486 531.648 29.075 531.648 27.6014C531.648 26.1278 533.123 24.6542 534.599 24.6542C536.811 24.6542 537.549 26.1278 537.549 27.6014Z" fill="white"/>
<path opacity="0.7" d="M513.207 225.803C513.207 227.276 511.732 228.75 510.257 228.75C508.781 228.75 507.306 227.276 507.306 225.803C507.306 224.329 508.781 222.856 510.257 222.856C511.732 222.856 513.207 224.329 513.207 225.803Z" fill="white"/>
<path opacity="0.7" d="M563.368 240.539C563.368 242.013 562.63 242.75 561.155 242.75C559.679 242.75 558.942 242.013 558.942 240.539C558.942 239.066 559.679 238.329 561.155 238.329C561.892 238.329 563.368 239.803 563.368 240.539Z" fill="white"/>
<path opacity="0.7" d="M778.023 155.07C778.023 154.333 778.76 153.596 779.498 153.596C780.236 153.596 780.973 154.333 780.973 155.07C780.973 155.807 780.236 156.543 779.498 156.543C778.76 157.28 778.023 156.543 778.023 155.07Z" fill="white"/>
<path opacity="0.7" d="M623.118 188.963C623.118 188.227 623.856 187.49 624.594 187.49C625.331 187.49 626.069 188.227 626.069 188.963C626.069 189.7 625.331 190.437 624.594 190.437C623.856 190.437 623.118 189.7 623.118 188.963Z" fill="white"/>
<path opacity="0.7" d="M641.558 6.97114C641.558 4.76071 643.771 2.55029 645.984 2.55029C648.197 2.55029 650.41 4.76071 650.41 6.97114C650.41 9.18156 648.197 11.392 645.984 11.392C643.771 11.392 641.558 9.18156 641.558 6.97114Z" fill="white"/>
<path opacity="0.7" d="M772.123 57.074C772.123 55.6004 773.599 54.1268 775.074 54.1268C776.549 54.1268 778.025 55.6004 778.025 57.074C778.025 58.5476 776.549 60.0212 775.074 60.0212C773.599 60.0212 772.123 58.5476 772.123 57.074Z" fill="white"/>
<path opacity="0.7" d="M742.617 291.379C742.617 290.642 743.355 289.905 744.092 289.905C744.83 289.905 745.568 290.642 745.568 291.379C745.568 292.116 744.83 292.853 744.092 292.853C743.355 292.853 742.617 292.116 742.617 291.379Z" fill="white"/>
<path opacity="0.7" d="M772.123 449.056C772.123 447.583 773.599 446.109 775.074 446.109C776.549 446.109 778.025 447.583 778.025 449.056C778.025 450.53 776.549 452.004 775.074 452.004C773.599 452.004 772.123 451.267 772.123 449.056Z" fill="white"/>
<path opacity="0.7" d="M89.8019 35.7067C89.8019 34.9699 90.5395 34.233 91.2771 34.233C92.0148 34.233 92.7524 34.9699 92.7524 35.7067C92.7524 36.4435 92.0148 37.1803 91.2771 37.1803C90.5395 37.1803 89.8019 36.4435 89.8019 35.7067Z" fill="white"/>
<path opacity="0.7" d="M645.247 88.7568C645.247 87.2832 646.723 85.8096 648.198 85.8096C649.673 85.8096 651.149 87.2832 651.149 88.7568C651.149 90.2304 649.673 91.704 648.198 91.704C646.723 91.704 645.247 90.2304 645.247 88.7568Z" fill="white"/>
<path opacity="0.7" d="M573.694 383.481C573.694 382.007 575.17 380.533 576.645 380.533C578.12 380.533 579.595 382.007 579.595 383.481C579.595 384.954 578.12 386.428 576.645 386.428C574.432 386.428 573.694 384.954 573.694 383.481Z" fill="white"/>
<path opacity="0.7" d="M582.548 306.116C582.548 303.906 584.761 301.695 586.974 301.695C589.187 301.695 591.399 303.906 591.399 306.116C591.399 308.326 589.187 310.537 586.974 310.537C584.023 309.8 582.548 308.326 582.548 306.116Z" fill="white"/>
<path opacity="0.7" d="M1132.09 294.327C1132.09 295.8 1131.35 296.537 1129.88 296.537C1128.4 296.537 1127.66 295.8 1127.66 294.327C1127.66 292.853 1128.4 292.116 1129.88 292.116C1130.61 292.116 1132.09 292.853 1132.09 294.327Z" fill="white"/>
<path opacity="0.7" d="M1084.88 289.169C1084.88 289.906 1084.15 290.642 1083.41 290.642C1082.67 290.642 1081.93 289.906 1081.93 289.169C1081.93 288.432 1082.67 287.695 1083.41 287.695C1084.15 287.695 1084.88 288.432 1084.88 289.169Z" fill="white"/>
<path opacity="0.7" d="M1222.82 294.327C1222.82 295.064 1222.08 295.801 1221.34 295.801C1220.61 295.801 1219.87 295.064 1219.87 294.327C1219.87 293.59 1220.61 292.853 1221.34 292.853C1222.08 292.117 1222.82 292.853 1222.82 294.327Z" fill="white"/>
<path opacity="0.7" d="M1129.14 449.056C1129.14 449.793 1128.41 450.53 1127.67 450.53C1126.93 450.53 1126.19 449.793 1126.19 449.056C1126.19 448.319 1126.93 447.583 1127.67 447.583C1128.41 447.583 1129.14 448.319 1129.14 449.056Z" fill="white"/>
<path opacity="0.7" d="M1404.28 351.061C1404.28 351.798 1403.55 352.535 1402.81 352.535C1402.07 352.535 1401.33 351.798 1401.33 351.061C1401.33 350.325 1402.07 349.588 1402.81 349.588C1403.55 348.851 1404.28 349.588 1404.28 351.061Z" fill="white"/>
<path opacity="0.7" d="M1239.05 256.012C1239.05 256.749 1238.31 257.486 1237.57 257.486C1236.84 257.486 1236.1 256.749 1236.1 256.012C1236.1 255.275 1236.84 254.538 1237.57 254.538C1238.31 254.538 1239.05 255.275 1239.05 256.012Z" fill="white"/>
<path opacity="0.7" d="M1073.82 216.961C1073.82 217.698 1073.08 218.435 1072.34 218.435C1071.61 218.435 1070.87 217.698 1070.87 216.961C1070.87 216.224 1071.61 215.488 1072.34 215.488C1073.08 215.488 1073.82 216.224 1073.82 216.961Z" fill="white"/>
<path opacity="0.7" d="M1046.52 315.694C1046.52 317.168 1045.79 317.904 1044.31 317.904C1042.84 317.904 1042.1 317.168 1042.1 315.694C1042.1 314.22 1042.84 313.484 1044.31 313.484C1045.05 313.484 1046.52 314.22 1046.52 315.694Z" fill="white"/>
<path opacity="0.7" d="M921.865 256.013C921.865 257.486 920.39 258.96 918.915 258.96C917.44 258.96 915.964 257.486 915.964 256.013C915.964 254.539 917.44 253.066 918.915 253.066C920.39 253.066 921.865 254.539 921.865 256.013Z" fill="white"/>
<path opacity="0.7" d="M1040.62 237.593C1040.62 239.066 1039.15 240.54 1037.67 240.54C1036.2 240.54 1034.72 239.066 1034.72 237.593C1034.72 236.119 1036.2 234.645 1037.67 234.645C1039.15 234.645 1040.62 236.119 1040.62 237.593Z" fill="white"/>
<path opacity="0.7" d="M1246.42 29.8113C1246.42 30.5481 1245.69 31.2849 1244.95 31.2849C1244.21 31.2849 1243.47 30.5481 1243.47 29.8113C1243.47 29.0745 1244.21 28.3377 1244.95 28.3377C1245.69 27.6009 1246.42 28.3377 1246.42 29.8113Z" fill="white"/>
<path opacity="0.7" d="M1129.14 56.3378C1129.14 57.0746 1128.41 57.8114 1127.67 57.8114C1126.93 57.8114 1126.19 57.0746 1126.19 56.3378C1126.19 55.601 1126.93 54.8641 1127.67 54.8641C1128.41 54.8641 1129.14 55.601 1129.14 56.3378Z" fill="white"/>
<path opacity="0.7" d="M1120.29 153.596C1120.29 154.333 1119.55 155.07 1118.82 155.07C1118.08 155.07 1117.34 154.333 1117.34 153.596C1117.34 152.859 1118.08 152.123 1118.82 152.123C1119.55 152.123 1120.29 152.859 1120.29 153.596Z" fill="white"/>
<path opacity="0.7" d="M1043.57 20.9698C1043.57 21.7066 1042.84 22.4434 1042.1 22.4434C1041.36 22.4434 1040.62 21.7066 1040.62 20.9698C1040.62 20.233 1041.36 19.4962 1042.1 19.4962C1042.84 18.7594 1043.57 19.4962 1043.57 20.9698Z" fill="white"/>
<path opacity="0.7" d="M1194.05 144.755C1194.05 145.492 1193.32 146.229 1192.58 146.229C1191.84 146.229 1191.1 145.492 1191.1 144.755C1191.1 144.018 1191.84 143.281 1192.58 143.281C1193.32 143.281 1194.05 144.018 1194.05 144.755Z" fill="white"/>
<path opacity="0.7" d="M1065.71 150.648C1065.71 152.122 1064.23 153.595 1062.76 153.595C1061.28 153.595 1059.8 152.122 1059.8 150.648C1059.8 149.175 1061.28 147.701 1062.76 147.701C1064.23 147.701 1065.71 149.175 1065.71 150.648Z" fill="white"/>
<path opacity="0.7" d="M1016.28 111.597C1016.28 113.071 1014.81 114.545 1013.33 114.545C1011.86 114.545 1010.38 113.071 1010.38 111.597C1010.38 110.124 1011.86 108.65 1013.33 108.65C1014.81 108.65 1016.28 109.387 1016.28 111.597Z" fill="white"/>
<path opacity="0.7" d="M897.518 61.4951C897.518 62.9687 896.043 64.4423 894.568 64.4423C893.092 64.4423 891.617 62.9687 891.617 61.4951C891.617 60.0215 893.092 58.5478 894.568 58.5478C896.043 58.5478 897.518 59.2846 897.518 61.4951Z" fill="white"/>
<path opacity="0.7" d="M975.713 43.0741C975.713 44.5477 974.976 45.2845 973.5 45.2845C972.025 45.2845 971.287 44.5477 971.287 43.0741C971.287 41.6005 972.025 40.8636 973.5 40.8636C974.976 40.8636 975.713 42.3373 975.713 43.0741Z" fill="white"/>
<path opacity="0.7" d="M1108.48 333.377C1108.48 334.113 1107.75 334.85 1107.01 334.85C1106.27 334.85 1105.53 334.113 1105.53 333.377C1105.53 332.64 1106.27 331.903 1107.01 331.903C1107.75 331.166 1108.48 331.903 1108.48 333.377Z" fill="white"/>
<path opacity="0.7" d="M671.8 387.165C671.8 388.638 670.325 390.112 668.85 390.112C667.374 390.112 665.899 388.638 665.899 387.165C665.899 385.691 667.374 384.218 668.85 384.218C670.325 384.218 671.8 384.954 671.8 387.165Z" fill="white"/>
<path opacity="0.7" d="M1246.42 453.477C1246.42 454.214 1245.69 454.951 1244.95 454.951C1244.21 454.951 1243.47 454.214 1243.47 453.477C1243.47 452.74 1244.21 452.004 1244.95 452.004C1245.69 452.004 1246.42 452.74 1246.42 453.477Z" fill="white"/>
<path opacity="0.7" d="M946.943 468.951C946.943 470.424 946.205 471.161 944.73 471.161C943.254 471.161 942.517 470.424 942.517 468.951C942.517 467.477 943.254 466.74 944.73 466.74C946.205 466.74 946.943 467.477 946.943 468.951Z" fill="white"/>
<path opacity="0.7" d="M1385.84 113.809C1385.84 114.545 1385.1 115.282 1384.37 115.282C1383.63 115.282 1382.89 114.545 1382.89 113.809C1382.89 113.072 1383.63 112.335 1384.37 112.335C1385.1 111.598 1385.84 112.335 1385.84 113.809Z" fill="white"/>
<path opacity="0.7" d="M1436 412.953C1436 413.69 1435.26 414.427 1434.52 414.427C1433.79 414.427 1433.05 413.69 1433.05 412.953C1433.05 412.216 1433.79 411.479 1434.52 411.479C1435.26 411.479 1436 412.216 1436 412.953Z" fill="white"/>
<path opacity="0.7" d="M1283.31 295.8C1283.31 297.273 1281.83 298.747 1280.36 298.747C1278.88 298.747 1277.41 297.273 1277.41 295.8C1277.41 294.326 1278.88 292.852 1280.36 292.852C1281.83 292.852 1283.31 294.326 1283.31 295.8Z" fill="white"/>
<path opacity="0.7" d="M1313.55 256.013C1313.55 257.486 1312.08 258.96 1310.6 258.96C1309.13 258.96 1307.65 257.486 1307.65 256.013C1307.65 254.539 1309.13 253.066 1310.6 253.066C1312.81 253.066 1313.55 254.539 1313.55 256.013Z" fill="white"/>
<path opacity="0.7" d="M1289.21 453.478C1289.21 454.952 1287.74 456.425 1286.26 456.425C1284.78 456.425 1283.31 454.952 1283.31 453.478C1283.31 452.004 1284.78 450.531 1286.26 450.531C1287.74 450.531 1289.21 452.004 1289.21 453.478Z" fill="white"/>
<path opacity="0.7" d="M1432.31 237.593C1432.31 239.066 1430.83 240.54 1429.36 240.54C1427.88 240.54 1426.41 239.066 1426.41 237.593C1426.41 236.119 1427.88 234.645 1429.36 234.645C1431.57 234.645 1432.31 236.119 1432.31 237.593Z" fill="white"/>
<path opacity="0.7" d="M1368.14 435.794C1368.14 437.267 1367.4 438.004 1365.92 438.004C1364.45 438.004 1363.71 437.267 1363.71 435.794C1363.71 434.32 1364.45 433.583 1365.92 433.583C1367.4 433.583 1368.14 434.32 1368.14 435.794Z" fill="white"/>
<path opacity="0.7" d="M1372.56 200.752C1372.56 202.226 1371.83 202.963 1370.35 202.963C1368.88 202.963 1368.14 202.226 1368.14 200.752C1368.14 199.279 1368.88 198.542 1370.35 198.542C1371.83 198.542 1372.56 199.279 1372.56 200.752Z" fill="white"/>
<path opacity="0.7" d="M1404.28 742.975C1404.28 743.711 1403.55 744.448 1402.81 744.448C1402.07 744.448 1401.33 743.711 1401.33 742.975C1401.33 742.238 1402.07 741.501 1402.81 741.501C1403.55 740.764 1404.28 741.501 1404.28 742.975Z" fill="white"/>
<path opacity="0.7" d="M1385.84 505.722C1385.84 506.458 1385.1 507.195 1384.37 507.195C1383.63 507.195 1382.89 506.458 1382.89 505.722C1382.89 504.985 1383.63 504.248 1384.37 504.248C1385.1 503.511 1385.84 504.248 1385.84 505.722Z" fill="white"/>
<path opacity="0.7" d="M1283.31 687.713C1283.31 689.186 1281.83 690.66 1280.36 690.66C1278.88 690.66 1277.41 689.186 1277.41 687.713C1277.41 686.239 1278.88 684.766 1280.36 684.766C1281.83 684.766 1283.31 686.239 1283.31 687.713Z" fill="white"/>
<path opacity="0.7" d="M1313.55 647.926C1313.55 649.4 1312.08 650.873 1310.6 650.873C1309.13 650.873 1307.65 649.4 1307.65 647.926C1307.65 646.452 1309.13 644.979 1310.6 644.979C1312.81 644.979 1313.55 646.452 1313.55 647.926Z" fill="white"/>
<path opacity="0.7" d="M1432.31 629.506C1432.31 630.979 1430.83 632.453 1429.36 632.453C1427.88 632.453 1426.41 630.979 1426.41 629.506C1426.41 628.032 1427.88 626.558 1429.36 626.558C1431.57 626.558 1432.31 628.032 1432.31 629.506Z" fill="white"/>
<path opacity="0.7" d="M1372.56 592.666C1372.56 594.139 1371.83 594.876 1370.35 594.876C1368.88 594.876 1368.14 594.139 1368.14 592.666C1368.14 591.192 1368.88 590.455 1370.35 590.455C1371.83 590.455 1372.56 591.192 1372.56 592.666Z" fill="white"/>
<path opacity="0.7" d="M1436 20.9698C1436 21.7066 1435.26 22.4434 1434.52 22.4434C1433.79 22.4434 1433.05 21.7066 1433.05 20.9698C1433.05 20.233 1433.79 19.4962 1434.52 19.4962C1435.26 18.7594 1436 19.4962 1436 20.9698Z" fill="white"/>
<path opacity="0.7" d="M489.605 414.427C489.605 416.637 487.392 418.848 485.179 418.848C482.966 418.848 480.753 416.637 480.753 414.427C480.753 412.216 482.966 410.006 485.179 410.006C488.13 410.743 489.605 412.216 489.605 414.427Z" fill="white"/>
<g opacity="0.7">
<path opacity="0.7" d="M572.96 85.0722L573.697 100.545L589.926 102.019L574.435 102.756L572.96 118.965L571.484 102.756L555.994 102.019L571.484 100.545L572.96 85.0722Z" fill="white"/>
<path opacity="0.7" d="M579.597 94.651L574.434 101.282L579.597 108.65L572.959 102.756L565.582 109.387L571.483 102.019L565.582 94.651L572.959 100.546L579.597 94.651Z" fill="white"/>
</g>
<g opacity="0.7">
<path opacity="0.7" d="M405.514 53.3894L406.989 68.8624L422.48 70.336L406.989 71.0728L405.514 87.2826L404.039 71.0728L388.548 70.336L404.039 68.8624L405.514 53.3894Z" fill="white"/>
<path opacity="0.7" d="M412.152 62.9682L406.988 70.3363L412.152 76.9676L405.513 71.8099L398.137 77.7044L404.775 70.3363L398.137 63.705L405.513 68.8627L412.152 62.9682Z" fill="white"/>
</g>
<g opacity="0.7">
<path opacity="0.7" d="M512.473 460.11L513.211 470.425L524.275 471.899H513.211L512.473 483.688L511.735 471.899H500.671L511.735 470.425L512.473 460.11Z" fill="white"/>
<path opacity="0.7" d="M516.901 466.74L513.213 471.161L516.901 476.319L512.475 471.898L507.312 476.319L511.738 471.161L507.312 466.74L512.475 470.424L516.901 466.74Z" fill="white"/>
</g>
<g opacity="0.7">
<path opacity="0.7" d="M144.387 32.0222L145.124 42.3376L156.189 43.8112H145.862L144.387 55.6001L143.649 43.8112H132.584L143.649 42.3376L144.387 32.0222Z" fill="white"/>
<path opacity="0.7" d="M149.552 38.6529L145.864 43.0737L149.552 48.2314L144.389 44.5474L139.225 48.2314L143.651 43.8105L139.225 38.6529L144.389 42.3369L149.552 38.6529Z" fill="white"/>
</g>
<g opacity="0.7">
<path opacity="0.7" d="M830.396 20.2325L831.133 30.5478L842.198 32.0214H831.133L830.396 43.8104L829.658 32.0214H818.593L829.658 30.5478L830.396 20.2325Z" fill="white"/>
<path opacity="0.7" d="M835.562 26.8632L831.136 31.2841L835.562 36.4417L830.398 32.7577L825.235 36.4417L829.66 32.0209L825.235 26.8632L830.398 30.5472L835.562 26.8632Z" fill="white"/>
</g>
<g opacity="0.7">
<path opacity="0.7" d="M1146.85 417.374L1148.32 432.11L1163.81 434.321H1148.32L1146.85 451.267L1145.37 434.321H1129.88L1145.37 432.11L1146.85 417.374Z" fill="white"/>
<path opacity="0.7" d="M1153.48 426.215L1148.32 433.583L1153.48 440.952L1146.85 435.057L1139.47 440.952L1146.11 433.583L1139.47 426.952L1146.85 432.11L1153.48 426.215Z" fill="white"/>
</g>
<g opacity="0.7">
<path opacity="0.7" d="M1253.81 32.0222L1254.54 42.3376L1265.61 43.8112H1254.54L1253.81 55.6001L1253.07 43.8112H1242L1253.07 42.3376L1253.81 32.0222Z" fill="white"/>
<path opacity="0.7" d="M1258.23 38.6529L1254.55 43.0737L1258.23 48.2314L1253.81 44.5474L1248.65 48.2314L1253.07 43.8105L1248.65 38.6529L1253.81 42.3369L1258.23 38.6529Z" fill="white"/>
</g>
<g opacity="0.7">
<path opacity="0.7" d="M1018.5 277.38L1019.23 288.432L1030.3 289.169L1019.23 289.906L1018.5 300.958L1017.76 289.906L1006.69 289.169L1017.76 288.432L1018.5 277.38Z" fill="white"/>
<path opacity="0.7" d="M1022.92 284.011L1019.24 289.169L1022.92 294.326L1018.5 289.906L1013.33 294.326L1017.76 289.169L1013.33 284.748L1018.5 288.432L1022.92 284.011Z" fill="white"/>
</g>
<g opacity="0.7">
<path opacity="0.7" d="M862.113 345.904L862.85 356.956L873.915 357.693L862.85 358.429L862.113 369.482L861.375 358.429L850.31 357.693L861.375 356.956L862.113 345.904Z" fill="white"/>
<path opacity="0.7" d="M866.541 352.534L862.853 357.692L866.541 362.85L862.115 358.429L856.952 362.85L861.378 357.692L856.952 353.271L862.115 356.955L866.541 352.534Z" fill="white"/>
</g>
<g opacity="0.7">
<path opacity="0.7" d="M929.242 54.1268L930.717 64.4421L941.045 65.9157H930.717L929.242 77.7047L928.505 65.9157H917.44L928.505 64.4421L929.242 54.1268Z" fill="white"/>
<path opacity="0.7" d="M934.408 60.7575L930.72 65.1783L934.408 70.336L929.982 66.6519L924.081 70.336L928.507 65.9151L924.081 60.7575L929.245 64.4415L934.408 60.7575Z" fill="white"/>
</g>
<path opacity="0.7" d="M1177.63 867.995C1177.63 866.521 1178.37 865.784 1179.85 865.784C1181.32 865.784 1182.06 866.521 1182.06 867.995C1182.06 869.468 1181.32 870.205 1179.85 870.205C1179.11 870.205 1177.63 869.468 1177.63 867.995Z" fill="white"/>
<path opacity="0.7" d="M1087.03 863.095C1087.03 862.359 1087.77 861.622 1088.5 861.622C1089.24 861.622 1089.98 862.359 1089.98 863.095C1089.98 863.832 1089.24 864.569 1088.5 864.569C1087.77 865.306 1087.03 864.569 1087.03 863.095Z" fill="white"/>
<path opacity="0.7" d="M1272.38 754.239C1272.38 753.503 1273.11 752.766 1273.85 752.766C1274.59 752.766 1275.33 753.503 1275.33 754.239C1275.33 754.976 1274.59 755.713 1273.85 755.713C1273.11 755.713 1272.38 754.976 1272.38 754.239Z" fill="white"/>
<path opacity="0.7" d="M246.651 789.248C246.651 788.511 247.389 787.775 248.126 787.775C248.864 787.775 249.602 788.511 249.602 789.248C249.602 789.985 248.864 790.722 248.126 790.722C247.389 790.722 246.651 789.985 246.651 789.248Z" fill="white"/>
<path opacity="0.7" d="M1063.18 949.623C1063.18 948.886 1063.92 948.15 1064.66 948.15C1065.4 948.15 1066.14 948.886 1066.14 949.623C1066.14 950.36 1065.4 951.097 1064.66 951.097C1063.92 951.097 1063.18 950.36 1063.18 949.623Z" fill="white"/>
<path opacity="0.7" d="M1068.78 900.487C1068.78 899.75 1069.51 899.013 1070.25 899.013C1070.99 899.013 1071.73 899.75 1071.73 900.487C1071.73 901.223 1070.99 901.96 1070.25 901.96C1069.51 901.96 1068.78 901.223 1068.78 900.487Z" fill="white"/>
<path opacity="0.7" d="M998.459 806.774C998.459 805.3 999.934 803.827 1001.41 803.827C1002.88 803.827 1004.36 805.3 1004.36 806.774C1004.36 808.248 1002.88 809.721 1001.41 809.721C999.196 809.721 998.459 808.248 998.459 806.774Z" fill="white"/>
<path opacity="0.7" d="M1366.71 951.223C1366.71 949.749 1368.18 948.276 1369.66 948.276C1371.13 948.276 1372.61 949.749 1372.61 951.223C1372.61 952.697 1371.13 954.17 1369.66 954.17C1368.18 954.17 1366.71 952.697 1366.71 951.223Z" fill="white"/>
<path opacity="0.7" d="M1421.12 721.713C1421.12 720.239 1422.6 718.765 1424.08 718.765C1425.55 718.765 1427.03 720.239 1427.03 721.713C1427.03 723.186 1425.55 724.66 1424.08 724.66C1421.86 724.66 1421.12 723.186 1421.12 721.713Z" fill="white"/>
<path opacity="0.7" d="M1265.93 929.585C1265.93 928.111 1267.4 926.638 1268.88 926.638C1270.35 926.638 1271.83 928.111 1271.83 929.585C1271.83 931.059 1270.35 932.532 1268.88 932.532C1267.4 932.532 1265.93 931.059 1265.93 929.585Z" fill="white"/>
<path opacity="0.7" d="M1341.36 735.105C1341.36 733.631 1342.1 732.895 1343.58 732.895C1345.05 732.895 1345.79 733.631 1345.79 735.105C1345.79 736.578 1345.05 737.315 1343.58 737.315C1342.1 737.315 1341.36 736.578 1341.36 735.105Z" fill="white"/>
<path opacity="0.7" d="M1107.75 1013.99C1107.75 1013.26 1108.49 1012.52 1109.22 1012.52C1109.96 1012.52 1110.7 1013.26 1110.7 1013.99C1110.7 1014.73 1109.96 1015.47 1109.22 1015.47C1108.49 1015.47 1107.75 1014.73 1107.75 1013.99Z" fill="white"/>
<path opacity="0.7" d="M1243.9 692.944C1243.9 692.208 1244.64 691.471 1245.38 691.471C1246.11 691.471 1246.85 692.208 1246.85 692.944C1246.85 693.681 1246.11 694.418 1245.38 694.418C1244.64 694.418 1243.9 693.681 1243.9 692.944Z" fill="white"/>
<path opacity="0.7" d="M1416.67 763.493C1416.67 762.02 1417.4 761.283 1418.88 761.283C1420.35 761.283 1421.09 762.02 1421.09 763.493C1421.09 764.967 1420.35 765.704 1418.88 765.704C1417.4 765.704 1416.67 764.967 1416.67 763.493Z" fill="white"/>
<path opacity="0.7" d="M1075.5 747.528C1075.5 745.317 1077.72 743.107 1079.93 743.107C1082.14 743.107 1084.36 745.317 1084.36 747.528C1084.36 749.738 1082.14 751.949 1079.93 751.949C1077.72 751.212 1075.5 749.738 1075.5 747.528Z" fill="white"/>
<path opacity="0.7" d="M1203.29 830.225C1203.29 829.488 1204.03 828.751 1204.76 828.751C1205.5 828.751 1206.24 829.488 1206.24 830.225C1206.24 830.962 1205.5 831.699 1204.76 831.699C1204.03 832.435 1203.29 831.699 1203.29 830.225Z" fill="white"/>
<path opacity="0.7" d="M1119.28 702.495C1119.28 701.758 1120.02 701.021 1120.76 701.021C1121.5 701.021 1122.23 701.758 1122.23 702.495C1122.23 703.232 1121.5 703.969 1120.76 703.969C1120.02 703.969 1119.28 703.232 1119.28 702.495Z" fill="white"/>
<path opacity="0.7" d="M398.786 831.35C398.786 830.613 399.524 829.876 400.261 829.876C400.999 829.876 401.736 830.613 401.736 831.35C401.736 832.086 400.999 832.823 400.261 832.823C399.524 832.823 398.786 832.086 398.786 831.35Z" fill="white"/>
<path opacity="0.7" d="M363.153 669.322C363.153 668.585 363.89 667.848 364.628 667.848C365.366 667.848 366.103 668.585 366.103 669.322C366.103 670.058 365.366 670.795 364.628 670.795C363.89 670.795 363.153 670.058 363.153 669.322Z" fill="white"/>
<path opacity="0.7" d="M585.09 690.815C585.09 690.079 585.828 689.342 586.565 689.342C587.303 689.342 588.041 690.079 588.041 690.815C588.041 691.552 587.303 692.289 586.565 692.289C585.828 692.289 585.09 691.552 585.09 690.815Z" fill="white"/>
<path opacity="0.7" d="M271.544 738.194C271.544 737.458 272.281 736.721 273.019 736.721C273.756 736.721 274.494 737.458 274.494 738.194C274.494 738.931 273.756 739.668 273.019 739.668C272.281 740.405 271.544 739.668 271.544 738.194Z" fill="white"/>
<path opacity="0.7" d="M398.175 732.522C398.175 731.048 399.65 729.575 401.126 729.575C402.601 729.575 404.076 731.048 404.076 732.522C404.076 733.995 402.601 735.469 401.126 735.469C399.65 735.469 398.175 733.995 398.175 732.522Z" fill="white"/>
<path opacity="0.7" d="M440.218 885.301C440.218 883.828 441.694 882.354 443.169 882.354C444.644 882.354 446.12 883.828 446.12 885.301C446.12 886.775 444.644 888.249 443.169 888.249C441.694 888.249 440.218 886.775 440.218 885.301Z" fill="white"/>
<path opacity="0.7" d="M403.058 655.228C403.058 654.491 403.796 653.754 404.533 653.754C405.271 653.754 406.009 654.491 406.009 655.228C406.009 655.964 405.271 656.701 404.533 656.701C403.796 656.701 403.058 655.964 403.058 655.228Z" fill="white"/>
<path opacity="0.7" d="M356.17 964.831C356.17 964.095 356.908 963.358 357.646 963.358C358.383 963.358 359.121 964.095 359.121 964.831C359.121 965.568 358.383 966.305 357.646 966.305C356.908 966.305 356.17 965.568 356.17 964.831Z" fill="white"/>
<path opacity="0.7" d="M512.773 909.853C512.773 908.38 514.248 906.906 515.723 906.906C517.198 906.906 518.674 908.38 518.674 909.853C518.674 911.327 517.198 912.8 515.723 912.8C514.248 912.8 512.773 911.327 512.773 909.853Z" fill="white"/>
<path opacity="0.7" d="M557.232 797.051C557.232 796.314 557.969 795.577 558.707 795.577C559.445 795.577 560.182 796.314 560.182 797.051C560.182 797.788 559.445 798.524 558.707 798.524C557.969 798.524 557.232 797.788 557.232 797.051Z" fill="white"/>
<path opacity="0.7" d="M1371.87 703.536C1371.87 702.063 1372.6 701.326 1374.08 701.326C1375.55 701.326 1376.29 702.063 1376.29 703.536C1376.29 705.01 1375.55 705.747 1374.08 705.747C1372.6 705.747 1371.87 705.01 1371.87 703.536Z" fill="white"/>
<path opacity="0.7" d="M782.16 845.428C782.16 843.218 784.372 841.007 786.585 841.007C788.798 841.007 791.011 843.218 791.011 845.428C791.011 847.639 788.798 849.849 786.585 849.849C784.372 849.112 782.16 847.639 782.16 845.428Z" fill="white"/>
<path opacity="0.7" d="M833.371 854.657C833.371 853.92 834.108 853.183 834.846 853.183C835.584 853.183 836.321 853.92 836.321 854.657C836.321 855.394 835.584 856.13 834.846 856.13C834.108 856.13 833.371 855.394 833.371 854.657Z" fill="white"/>
<path opacity="0.7" d="M797.004 692.589C797.004 691.853 797.742 691.116 798.479 691.116C799.217 691.116 799.955 691.853 799.955 692.589C799.955 693.326 799.217 694.063 798.479 694.063C797.742 694.063 797.004 693.326 797.004 692.589Z" fill="white"/>
<path opacity="0.7" d="M880.512 733.223C880.512 732.486 881.25 731.749 881.988 731.749C882.725 731.749 883.463 732.486 883.463 733.223C883.463 733.96 882.725 734.697 881.988 734.697C881.25 734.697 880.512 733.96 880.512 733.223Z" fill="white"/>
<path opacity="0.7" d="M688.552 662.423C688.552 661.686 689.29 660.95 690.028 660.95C690.765 660.95 691.503 661.686 691.503 662.423C691.503 663.16 690.765 663.897 690.028 663.897C689.29 663.897 688.552 663.16 688.552 662.423Z" fill="white"/>
<path opacity="0.7" d="M918.388 770.673C918.388 769.937 919.125 769.2 919.863 769.2C920.601 769.2 921.338 769.937 921.338 770.673C921.338 771.41 920.601 772.147 919.863 772.147C919.125 772.884 918.388 772.147 918.388 770.673Z" fill="white"/>
<path opacity="0.7" d="M676.912 879.47C676.912 878.734 677.649 877.997 678.387 877.997C679.125 877.997 679.862 878.734 679.862 879.47C679.862 880.207 679.125 880.944 678.387 880.944C677.649 880.944 676.912 880.207 676.912 879.47Z" fill="white"/>
<path opacity="0.7" d="M840.553 927.354C840.553 926.617 841.291 925.88 842.028 925.88C842.766 925.88 843.504 926.617 843.504 927.354C843.504 928.09 842.766 928.827 842.028 928.827C841.291 928.827 840.553 928.09 840.553 927.354Z" fill="white"/>
<path opacity="0.7" d="M1026.71 858.465C1026.71 856.991 1028.18 855.517 1029.66 855.517C1031.13 855.517 1032.61 856.991 1032.61 858.465C1032.61 859.938 1031.13 861.412 1029.66 861.412C1028.18 861.412 1026.71 859.938 1026.71 858.465Z" fill="white"/>
<path opacity="0.7" d="M994.378 896.575C994.378 895.101 995.854 893.628 997.329 893.628C998.804 893.628 1000.28 895.101 1000.28 896.575C1000.28 898.048 998.804 899.522 997.329 899.522C995.854 899.522 994.378 898.048 994.378 896.575Z" fill="white"/>
<path opacity="0.7" d="M1029.26 700.696C1029.26 699.223 1030.73 697.749 1032.21 697.749C1033.69 697.749 1035.16 699.223 1035.16 700.696C1035.16 702.17 1033.69 703.644 1032.21 703.644C1030.73 703.644 1029.26 702.17 1029.26 700.696Z" fill="white"/>
<path opacity="0.7" d="M874.805 908.609C874.805 907.135 876.28 905.661 877.755 905.661C879.231 905.661 880.706 907.135 880.706 908.609C880.706 910.082 879.231 911.556 877.755 911.556C876.28 911.556 874.805 910.082 874.805 908.609Z" fill="white"/>
<path opacity="0.7" d="M949.503 714.089C949.503 712.615 950.241 711.879 951.716 711.879C953.191 711.879 953.929 712.615 953.929 714.089C953.929 715.563 953.191 716.299 951.716 716.299C950.241 716.299 949.503 715.563 949.503 714.089Z" fill="white"/>
<path opacity="0.7" d="M730.615 787.324C730.615 785.113 732.828 782.903 735.041 782.903C737.254 782.903 739.467 785.113 739.467 787.324C739.467 789.534 737.254 791.744 735.041 791.744C732.09 791.744 730.615 790.271 730.615 787.324Z" fill="white"/>
<path opacity="0.7" d="M932.492 948.556C932.492 947.082 933.23 946.346 934.705 946.346C936.18 946.346 936.918 947.082 936.918 948.556C936.918 950.03 936.18 950.766 934.705 950.766C933.967 950.766 932.492 950.03 932.492 948.556Z" fill="white"/>
<path opacity="0.7" d="M790.015 988.099C790.015 987.362 790.753 986.625 791.491 986.625C792.228 986.625 792.966 987.362 792.966 988.099C792.966 988.836 792.228 989.573 791.491 989.573C790.753 989.573 790.015 988.836 790.015 988.099Z" fill="white"/>
<path opacity="0.7" d="M717.358 991.504C716.543 991.504 715.883 992.164 715.883 992.978C715.883 993.791 716.543 994.451 717.358 994.451C718.173 994.451 718.833 993.791 718.833 992.978C718.833 992.164 718.173 991.504 717.358 991.504Z" fill="white"/>
<path opacity="0.7" d="M845.101 994.085C845.101 992.611 846.577 991.138 848.052 991.138C849.527 991.138 851.002 992.611 851.002 994.085C851.002 995.559 849.527 997.032 848.052 997.032C845.839 997.032 845.101 995.559 845.101 994.085Z" fill="white"/>
<path opacity="0.7" d="M971.678 1003.05C971.678 1001.57 972.415 1000.84 973.891 1000.84C975.366 1000.84 976.104 1001.57 976.104 1003.05C976.104 1004.52 975.366 1005.26 973.891 1005.26C973.153 1005.26 971.678 1004.52 971.678 1003.05Z" fill="white"/>
<path opacity="0.7" d="M1021.25 1015.42C1021.25 1013.21 1023.46 1011 1025.68 1011C1027.89 1011 1030.1 1013.21 1030.1 1015.42C1030.1 1017.63 1027.89 1019.84 1025.68 1019.84C1022.73 1019.84 1021.25 1017.63 1021.25 1015.42Z" fill="white"/>
<path opacity="0.7" d="M818.193 752.017C818.193 751.281 818.93 750.544 819.668 750.544C820.406 750.544 821.143 751.281 821.143 752.017C821.143 752.754 820.406 753.491 819.668 753.491C818.93 753.491 818.193 752.754 818.193 752.017Z" fill="white"/>
<path opacity="0.7" d="M980.742 682.56C980.742 681.086 981.479 680.349 982.955 680.349C984.43 680.349 985.168 681.086 985.168 682.56C985.168 684.034 984.43 684.77 982.955 684.77C981.479 684.77 980.742 684.034 980.742 682.56Z" fill="white"/>
<path opacity="0.7" d="M761.337 930.642C761.337 928.431 763.549 926.221 765.762 926.221C767.975 926.221 770.188 928.431 770.188 930.642C770.188 932.852 767.975 935.062 765.762 935.062C763.549 935.062 761.337 932.852 761.337 930.642Z" fill="white"/>
<path opacity="0.7" d="M716.46 996.04C716.46 994.566 717.935 993.093 719.41 993.093C720.886 993.093 722.361 994.566 722.361 996.04C722.361 997.513 720.886 998.987 719.41 998.987C717.197 998.987 716.46 997.513 716.46 996.04Z" fill="white"/>
<path opacity="0.7" d="M694.444 910.742C694.444 909.269 695.919 907.795 697.394 907.795C698.87 907.795 700.345 909.269 700.345 910.742C700.345 912.216 698.87 913.69 697.394 913.69C695.919 913.69 694.444 912.216 694.444 910.742Z" fill="white"/>
<path opacity="0.7" d="M645.146 893.301C645.146 891.828 645.883 891.091 647.358 891.091C648.834 891.091 649.571 891.828 649.571 893.301C649.571 894.775 648.834 895.512 647.358 895.512C646.621 895.512 645.146 894.038 645.146 893.301Z" fill="white"/>
<path opacity="0.7" d="M426.234 966.955C426.234 967.692 425.497 968.429 424.759 968.429C424.021 968.429 423.284 967.692 423.284 966.955C423.284 966.218 424.021 965.481 424.759 965.481C425.497 964.745 426.234 965.481 426.234 966.955Z" fill="white"/>
<path opacity="0.7" d="M582.724 941.406C582.724 942.142 581.986 942.879 581.248 942.879C580.511 942.879 579.773 942.142 579.773 941.406C579.773 940.669 580.511 939.932 581.248 939.932C581.986 939.932 582.724 940.669 582.724 941.406Z" fill="white"/>
<path opacity="0.7" d="M468.882 832.737C468.882 833.474 468.144 834.211 467.406 834.211C466.668 834.211 465.931 833.474 465.931 832.737C465.931 832 466.668 831.264 467.406 831.264C468.144 831.264 468.882 832 468.882 832.737Z" fill="white"/>
<path opacity="0.7" d="M447.864 673.627C447.864 675.101 446.388 676.574 444.913 676.574C443.438 676.574 441.963 675.101 441.963 673.627C441.963 672.153 443.438 670.68 444.913 670.68C446.388 670.68 447.864 671.417 447.864 673.627Z" fill="white"/>
<path opacity="0.7" d="M642.496 749.735C642.496 751.209 641.021 752.683 639.546 752.683C638.07 752.683 636.595 751.209 636.595 749.735C636.595 748.262 638.07 746.788 639.546 746.788C641.759 746.788 642.496 748.262 642.496 749.735Z" fill="white"/>
<path opacity="0.7" d="M629.514 826.436C629.514 828.646 627.301 830.857 625.089 830.857C622.876 830.857 620.663 828.646 620.663 826.436C620.663 824.225 622.876 822.015 625.089 822.015C628.039 822.752 629.514 824.225 629.514 826.436Z" fill="white"/>
<path opacity="0.7" d="M80.1214 809.134C80.1214 807.66 80.8591 806.923 82.3344 806.923C83.8096 806.923 84.5472 807.66 84.5472 809.134C84.5472 810.607 83.8096 811.344 82.3344 811.344C81.5967 811.344 80.1214 810.607 80.1214 809.134Z" fill="white"/>
<path opacity="0.7" d="M126.982 816.772C126.982 816.035 127.72 815.299 128.458 815.299C129.195 815.299 129.933 816.035 129.933 816.772C129.933 817.509 129.195 818.246 128.458 818.246C127.72 818.246 126.982 817.509 126.982 816.772Z" fill="white"/>
<path opacity="0.7" d="M91.3504 654.744C91.3504 654.008 92.088 653.271 92.8257 653.271C93.5633 653.271 94.301 654.008 94.301 654.744C94.301 655.481 93.5633 656.218 92.8257 656.218C92.088 656.218 91.3504 655.481 91.3504 654.744Z" fill="white"/>
<path opacity="0.7" d="M134.165 889.469C134.165 888.732 134.902 887.996 135.64 887.996C136.378 887.996 137.115 888.732 137.115 889.469C137.115 890.206 136.378 890.943 135.64 890.943C134.902 890.943 134.165 890.206 134.165 889.469Z" fill="white"/>
<path opacity="0.7" d="M166.707 792.379C166.707 790.906 167.445 790.169 168.92 790.169C170.396 790.169 171.133 790.906 171.133 792.379C171.133 793.853 170.396 794.59 168.92 794.59C168.183 794.59 166.707 793.853 166.707 792.379Z" fill="white"/>
<path opacity="0.7" d="M287.99 858.69C287.99 857.217 289.465 855.743 290.94 855.743C292.416 855.743 293.891 857.217 293.891 858.69C293.891 860.164 292.416 861.638 290.94 861.638C289.465 861.638 287.99 860.164 287.99 858.69Z" fill="white"/>
<path opacity="0.7" d="M168.416 870.724C168.416 869.251 169.892 867.777 171.367 867.777C172.842 867.777 174.318 869.251 174.318 870.724C174.318 872.198 172.842 873.671 171.367 873.671C169.892 873.671 168.416 872.198 168.416 870.724Z" fill="white"/>
<path opacity="0.7" d="M84.3668 950.254C84.3668 949.518 85.1045 948.781 85.8421 948.781C86.5798 948.781 87.3174 949.518 87.3174 950.254C87.3174 950.991 86.5798 951.728 85.8421 951.728C85.1045 951.728 84.3668 950.991 84.3668 950.254Z" fill="white"/>
<path opacity="0.7" d="M10.2357 955.133C10.2357 954.396 10.9734 953.659 11.711 953.659C12.4487 953.659 13.1863 954.396 13.1863 955.133C13.1863 955.869 12.4487 956.606 11.711 956.606C10.9734 956.606 10.2357 955.869 10.2357 955.133Z" fill="white"/>
<path opacity="0.7" d="M138.713 956.2C138.713 954.727 140.188 953.253 141.664 953.253C143.139 953.253 144.614 954.727 144.614 956.2C144.614 957.674 143.139 959.148 141.664 959.148C140.188 959.148 138.713 957.674 138.713 956.2Z" fill="white"/>
<path opacity="0.7" d="M185.975 997.842C185.975 996.368 187.45 994.895 188.925 994.895C190.4 994.895 191.876 996.368 191.876 997.842C191.876 999.316 190.4 1000.79 188.925 1000.79C187.45 1000.79 185.975 1000.05 185.975 997.842Z" fill="white"/>
<path opacity="0.7" d="M105.777 771.364C105.777 770.627 106.514 769.89 107.252 769.89C107.989 769.89 108.727 770.627 108.727 771.364C108.727 772.101 107.989 772.838 107.252 772.838C106.514 773.575 105.777 772.838 105.777 771.364Z" fill="white"/>
<path opacity="0.7" d="M544.72 741.118C544.72 739.645 546.195 738.171 547.67 738.171C549.146 738.171 550.621 739.645 550.621 741.118C550.621 742.592 549.146 744.066 547.67 744.066C546.195 744.066 544.72 743.329 544.72 741.118Z" fill="white"/>
<path opacity="0.7" d="M274.353 644.675C274.353 643.202 275.091 642.465 276.566 642.465C278.042 642.465 278.779 643.202 278.779 644.675C278.779 646.149 278.042 646.886 276.566 646.886C275.091 646.886 274.353 646.149 274.353 644.675Z" fill="white"/>
<path opacity="0.7" d="M728.111 723.732C728.111 721.522 730.324 719.311 732.537 719.311C734.75 719.311 736.963 721.522 736.963 723.732C736.963 725.942 734.75 728.153 732.537 728.153C729.587 727.416 728.111 725.942 728.111 723.732Z" fill="white"/>
<g opacity="0.7">
<path opacity="0.7" d="M628.152 1047.94L627.414 1032.46L611.186 1030.99L626.677 1030.25L628.152 1014.04L629.627 1030.25L645.118 1030.99L629.627 1032.46L628.152 1047.94Z" fill="white"/>
<path opacity="0.7" d="M621.514 1038.36L626.678 1031.73L621.514 1024.36L628.153 1030.25L635.53 1023.62L629.629 1030.99L635.53 1038.36L628.153 1032.46L621.514 1038.36Z" fill="white"/>
</g>
<g opacity="0.7">
<path opacity="0.7" d="M708.361 676.67L707.623 666.355L696.558 664.881H707.623L708.361 653.092L709.098 664.881H720.163L709.098 666.355L708.361 676.67Z" fill="white"/>
<path opacity="0.7" d="M703.932 670.039L707.621 665.618L703.932 660.461L708.358 664.882L713.522 660.461L709.096 665.618L713.522 670.039L708.358 666.355L703.932 670.039Z" fill="white"/>
</g>
<g opacity="0.7">
<path opacity="0.7" d="M72.8849 685.378L71.4096 670.642L55.9191 668.432H71.4096L72.8849 651.485L74.3602 668.432H89.8507L74.3602 670.642L72.8849 685.378Z" fill="white"/>
<path opacity="0.7" d="M66.2475 676.537L71.4111 669.169L66.2475 661.801L72.8864 667.695L80.2628 661.801L73.624 669.169L80.2628 675.8L72.8864 670.642L66.2475 676.537Z" fill="white"/>
</g>
<g opacity="0.7">
<path opacity="0.7" d="M193.278 832.037L192.541 820.985L181.476 820.248L192.541 819.512L193.278 808.46L194.016 819.512L205.081 820.248L194.016 820.985L193.278 832.037Z" fill="white"/>
<path opacity="0.7" d="M188.85 825.407L192.538 820.249L188.85 815.091L193.276 819.512L198.439 815.091L194.014 820.249L198.439 824.67L193.276 820.986L188.85 825.407Z" fill="white"/>
</g>
<g opacity="0.7">
<path opacity="0.7" d="M353.106 771.987L352.369 760.935L341.304 760.198L352.369 759.462L353.106 748.409L353.844 759.462L364.909 760.198L353.844 760.935L353.106 771.987Z" fill="white"/>
<path opacity="0.7" d="M348.678 765.357L352.366 760.199L348.678 755.041L353.104 759.462L358.267 755.041L353.842 760.199L358.267 764.62L353.104 760.936L348.678 765.357Z" fill="white"/>
</g>
<path opacity="0.7" d="M1177.63 586.307C1177.63 584.833 1178.37 584.097 1179.85 584.097C1181.32 584.097 1182.06 584.833 1182.06 586.307C1182.06 587.781 1181.32 588.517 1179.85 588.517C1179.11 588.517 1177.63 587.781 1177.63 586.307Z" fill="white"/>
<path opacity="0.7" d="M1087.03 581.408C1087.03 580.671 1087.77 579.934 1088.5 579.934C1089.24 579.934 1089.98 580.671 1089.98 581.408C1089.98 582.145 1089.24 582.881 1088.5 582.881C1087.77 583.618 1087.03 582.881 1087.03 581.408Z" fill="white"/>
<path opacity="0.7" d="M246.651 507.561C246.651 506.824 247.389 506.087 248.126 506.087C248.864 506.087 249.602 506.824 249.602 507.561C249.602 508.297 248.864 509.034 248.126 509.034C247.389 509.034 246.651 508.297 246.651 507.561Z" fill="white"/>
<path opacity="0.7" d="M1068.78 618.799C1068.78 618.062 1069.51 617.325 1070.25 617.325C1070.99 617.325 1071.73 618.062 1071.73 618.799C1071.73 619.536 1070.99 620.273 1070.25 620.273C1069.51 620.273 1068.78 619.536 1068.78 618.799Z" fill="white"/>
<path opacity="0.7" d="M998.459 525.086C998.459 523.613 999.934 522.139 1001.41 522.139C1002.88 522.139 1004.36 523.613 1004.36 525.086C1004.36 526.56 1002.88 528.034 1001.41 528.034C999.196 528.034 998.459 526.56 998.459 525.086Z" fill="white"/>
<path opacity="0.7" d="M1265.93 647.898C1265.93 646.424 1267.4 644.95 1268.88 644.95C1270.35 644.95 1271.83 646.424 1271.83 647.898C1271.83 649.371 1270.35 650.845 1268.88 650.845C1267.4 650.845 1265.93 649.371 1265.93 647.898Z" fill="white"/>
<path opacity="0.7" d="M1203.29 548.537C1203.29 547.801 1204.03 547.064 1204.76 547.064C1205.5 547.064 1206.24 547.801 1206.24 548.537C1206.24 549.274 1205.5 550.011 1204.76 550.011C1204.03 550.748 1203.29 550.011 1203.29 548.537Z" fill="white"/>
<path opacity="0.7" d="M398.786 549.662C398.786 548.925 399.524 548.188 400.261 548.188C400.999 548.188 401.736 548.925 401.736 549.662C401.736 550.399 400.999 551.136 400.261 551.136C399.524 551.136 398.786 550.399 398.786 549.662Z" fill="white"/>
<path opacity="0.7" d="M440.218 603.614C440.218 602.14 441.694 600.666 443.169 600.666C444.644 600.666 446.12 602.14 446.12 603.614C446.12 605.087 444.644 606.561 443.169 606.561C441.694 606.561 440.218 605.087 440.218 603.614Z" fill="white"/>
<path opacity="0.7" d="M512.773 628.166C512.773 626.692 514.248 625.218 515.723 625.218C517.198 625.218 518.674 626.692 518.674 628.166C518.674 629.639 517.198 631.113 515.723 631.113C514.248 631.113 512.773 629.639 512.773 628.166Z" fill="white"/>
<path opacity="0.7" d="M557.232 515.363C557.232 514.626 557.969 513.89 558.707 513.89C559.445 513.89 560.182 514.626 560.182 515.363C560.182 516.1 559.445 516.837 558.707 516.837C557.969 516.837 557.232 516.1 557.232 515.363Z" fill="white"/>
<path opacity="0.7" d="M782.16 563.741C782.16 561.53 784.372 559.32 786.585 559.32C788.798 559.32 791.011 561.53 791.011 563.741C791.011 565.951 788.798 568.161 786.585 568.161C784.372 567.425 782.16 565.951 782.16 563.741Z" fill="white"/>
<path opacity="0.7" d="M833.371 572.969C833.371 572.232 834.108 571.496 834.846 571.496C835.584 571.496 836.321 572.232 836.321 572.969C836.321 573.706 835.584 574.443 834.846 574.443C834.108 574.443 833.371 573.706 833.371 572.969Z" fill="white"/>
<path opacity="0.7" d="M918.388 488.986C918.388 488.249 919.125 487.512 919.863 487.512C920.601 487.512 921.338 488.249 921.338 488.986C921.338 489.723 920.601 490.459 919.863 490.459C919.125 491.196 918.388 490.459 918.388 488.986Z" fill="white"/>
<path opacity="0.7" d="M676.912 597.783C676.912 597.046 677.649 596.309 678.387 596.309C679.125 596.309 679.862 597.046 679.862 597.783C679.862 598.52 679.125 599.256 678.387 599.256C677.649 599.256 676.912 598.52 676.912 597.783Z" fill="white"/>
<path opacity="0.7" d="M840.553 645.666C840.553 644.929 841.291 644.192 842.028 644.192C842.766 644.192 843.504 644.929 843.504 645.666C843.504 646.403 842.766 647.14 842.028 647.14C841.291 647.14 840.553 646.403 840.553 645.666Z" fill="white"/>
<path opacity="0.7" d="M1026.71 576.777C1026.71 575.303 1028.18 573.83 1029.66 573.83C1031.13 573.83 1032.61 575.303 1032.61 576.777C1032.61 578.251 1031.13 579.724 1029.66 579.724C1028.18 579.724 1026.71 578.251 1026.71 576.777Z" fill="white"/>
<path opacity="0.7" d="M994.378 614.887C994.378 613.414 995.854 611.94 997.329 611.94C998.804 611.94 1000.28 613.414 1000.28 614.887C1000.28 616.361 998.804 617.835 997.329 617.835C995.854 617.835 994.378 616.361 994.378 614.887Z" fill="white"/>
<path opacity="0.7" d="M874.805 626.921C874.805 625.447 876.28 623.974 877.755 623.974C879.231 623.974 880.706 625.447 880.706 626.921C880.706 628.395 879.231 629.868 877.755 629.868C876.28 629.868 874.805 628.395 874.805 626.921Z" fill="white"/>
<path opacity="0.7" d="M730.615 505.636C730.615 503.426 732.828 501.215 735.041 501.215C737.254 501.215 739.467 503.426 739.467 505.636C739.467 507.846 737.254 510.057 735.041 510.057C732.09 510.057 730.615 508.583 730.615 505.636Z" fill="white"/>
<path opacity="0.7" d="M761.337 648.954C761.337 646.744 763.549 644.533 765.762 644.533C767.975 644.533 770.188 646.744 770.188 648.954C770.188 651.164 767.975 653.375 765.762 653.375C763.549 653.375 761.337 651.164 761.337 648.954Z" fill="white"/>
<path opacity="0.7" d="M694.444 629.055C694.444 627.581 695.919 626.108 697.394 626.108C698.87 626.108 700.345 627.581 700.345 629.055C700.345 630.528 698.87 632.002 697.394 632.002C695.919 632.002 694.444 630.528 694.444 629.055Z" fill="white"/>
<path opacity="0.7" d="M645.146 611.614C645.146 610.14 645.883 609.403 647.358 609.403C648.834 609.403 649.571 610.14 649.571 611.614C649.571 613.087 648.834 613.824 647.358 613.824C646.621 613.824 645.146 612.35 645.146 611.614Z" fill="white"/>
<path opacity="0.7" d="M582.724 659.718C582.724 660.455 581.986 661.192 581.248 661.192C580.511 661.192 579.773 660.455 579.773 659.718C579.773 658.981 580.511 658.244 581.248 658.244C581.986 658.244 582.724 658.981 582.724 659.718Z" fill="white"/>
<path opacity="0.7" d="M468.882 551.05C468.882 551.786 468.144 552.523 467.406 552.523C466.668 552.523 465.931 551.786 465.931 551.05C465.931 550.313 466.668 549.576 467.406 549.576C468.144 549.576 468.882 550.313 468.882 551.05Z" fill="white"/>
<path opacity="0.7" d="M629.514 544.748C629.514 546.959 627.301 549.169 625.089 549.169C622.876 549.169 620.663 546.959 620.663 544.748C620.663 542.538 622.876 540.327 625.089 540.327C628.039 541.064 629.514 542.538 629.514 544.748Z" fill="white"/>
<path opacity="0.7" d="M80.1214 527.446C80.1214 525.972 80.8591 525.236 82.3344 525.236C83.8096 525.236 84.5472 525.972 84.5472 527.446C84.5472 528.92 83.8096 529.656 82.3344 529.656C81.5967 529.656 80.1214 528.92 80.1214 527.446Z" fill="white"/>
<path opacity="0.7" d="M126.982 535.085C126.982 534.348 127.72 533.611 128.458 533.611C129.195 533.611 129.933 534.348 129.933 535.085C129.933 535.822 129.195 536.558 128.458 536.558C127.72 536.558 126.982 535.822 126.982 535.085Z" fill="white"/>
<path opacity="0.7" d="M134.165 607.782C134.165 607.045 134.902 606.308 135.64 606.308C136.378 606.308 137.115 607.045 137.115 607.782C137.115 608.518 136.378 609.255 135.64 609.255C134.902 609.255 134.165 608.518 134.165 607.782Z" fill="white"/>
<path opacity="0.7" d="M166.707 510.692C166.707 509.218 167.445 508.481 168.92 508.481C170.396 508.481 171.133 509.218 171.133 510.692C171.133 512.165 170.396 512.902 168.92 512.902C168.183 512.902 166.707 512.165 166.707 510.692Z" fill="white"/>
<path opacity="0.7" d="M287.99 577.003C287.99 575.529 289.465 574.056 290.94 574.056C292.416 574.056 293.891 575.529 293.891 577.003C293.891 578.476 292.416 579.95 290.94 579.95C289.465 579.95 287.99 578.476 287.99 577.003Z" fill="white"/>
<path opacity="0.7" d="M168.416 589.037C168.416 587.563 169.892 586.089 171.367 586.089C172.842 586.089 174.318 587.563 174.318 589.037C174.318 590.51 172.842 591.984 171.367 591.984C169.892 591.984 168.416 590.51 168.416 589.037Z" fill="white"/>
<path opacity="0.7" d="M105.777 489.677C105.777 488.94 106.514 488.203 107.252 488.203C107.989 488.203 108.727 488.94 108.727 489.677C108.727 490.413 107.989 491.15 107.252 491.15C106.514 491.887 105.777 491.15 105.777 489.677Z" fill="white"/>
<g opacity="0.7">
<path opacity="0.7" d="M193.278 550.35L192.541 539.298L181.476 538.561L192.541 537.824L193.278 526.772L194.016 537.824L205.081 538.561L194.016 539.298L193.278 550.35Z" fill="white"/>
<path opacity="0.7" d="M188.85 543.719L192.538 538.561L188.85 533.404L193.276 537.825L198.439 533.404L194.014 538.561L198.439 542.982L193.276 539.298L188.85 543.719Z" fill="white"/>
</g>
<g opacity="0.7">
<path opacity="0.7" d="M353.106 490.3L352.369 479.248L341.304 478.511L352.369 477.774L353.106 466.722L353.844 477.774L364.909 478.511L353.844 479.248L353.106 490.3Z" fill="white"/>
<path opacity="0.7" d="M348.678 483.669L352.366 478.511L348.678 473.354L353.104 477.775L358.267 473.354L353.842 478.511L358.267 482.932L353.104 479.248L348.678 483.669Z" fill="white"/>
</g>
</svg>
